<svg width="55" height="55" viewBox="0 0 55 55" fill="none" xmlns="http://www.w3.org/2000/svg">
<circle cx="27.5" cy="27.5" r="27.5" fill="#FFA500"/>
<path d="M7.29289 27.2929C6.90237 27.6834 6.90237 28.3166 7.29289 28.7071L13.6569 35.0711C14.0474 35.4616 14.6805 35.4616 15.0711 35.0711C15.4616 34.6805 15.4616 34.0474 15.0711 33.6569L9.41421 28L15.0711 22.3431C15.4616 21.9526 15.4616 21.3195 15.0711 20.9289C14.6805 20.5384 14.0474 20.5384 13.6569 20.9289L7.29289 27.2929ZM47.7071 28.7071C48.0976 28.3166 48.0976 27.6834 47.7071 27.2929L41.3431 20.9289C40.9526 20.5384 40.3195 20.5384 39.9289 20.9289C39.5384 21.3195 39.5384 21.9526 39.9289 22.3431L45.5858 28L39.9289 33.6569C39.5384 34.0474 39.5384 34.6805 39.9289 35.0711C40.3195 35.4616 40.9526 35.4616 41.3431 35.0711L47.7071 28.7071ZM8 28V29H47V28V27H8V28Z" fill="white"/>
</svg>
